<?xml version="1.0" encoding="UTF-8" standalone="no"?>
<!DOCTYPE svg PUBLIC "-//W3C//DTD SVG 1.1//EN" "http://www.w3.org/Graphics/SVG/1.1/DTD/svg11.dtd">
<svg width="100%" height="100%" viewBox="0 0 512 512" version="1.1" xmlns="http://www.w3.org/2000/svg" xmlns:xlink="http://www.w3.org/1999/xlink" xml:space="preserve" xmlns:serif="http://www.serif.com/" style="fill-rule:evenodd;clip-rule:evenodd;stroke-linejoin:round;stroke-miterlimit:2;">
    <g transform="matrix(1.426908,0,0,1.545455,-109.288541,-283.687631)">
        <g transform="matrix(1,0,0,0.965519,0,16.782004)">
            <path d="M116,214L114,292C114,292 333.667,294.167 378,295C380.134,295.04 379.397,295.953 380,298C385.392,316.304 416,425.808 416,425.808L419,426L419,250C419,250 238.167,249.667 202,249C200.334,248.969 200.5,247.59 200,246C198.167,240.167 191,216 191,216L116,214Z" style="fill:rgb(30,64,175);"/>
            <path d="M101.204,294.25L101.204,207.139C101.204,204.241 103.556,201.889 106.454,201.889L195.954,201.889C196.353,201.889 196.741,201.933 197.114,202.018C199.846,201.402 202.605,203.051 203.337,205.781L211.624,236.71L425.954,236.71C428.852,236.71 431.204,239.062 431.204,241.96L431.204,481.46C431.204,484.357 428.852,486.71 425.954,486.71L421.454,486.71C418.556,486.71 416.204,484.357 416.204,481.46L416.204,251.71L206.454,251.71C206.055,251.71 205.667,251.665 205.294,251.581C202.562,252.197 199.803,250.547 199.071,247.817L190.784,216.889L116.204,216.889L116.204,294.25C116.204,297.148 113.852,299.5 110.954,299.5L106.454,299.5C103.556,299.5 101.204,297.148 101.204,294.25Z" style="fill:rgb(30,64,175);"/>
        </g>
        <g>
            <g>
                <g transform="matrix(1.015924,0,0,1.067073,-3.576433,-24.591463)">
                    <path d="M99,307L143,471L413,471L370,307L99,307Z" style="fill:rgb(37,99,235);"/>
                </g>
                <path d="M135.77,486.665C133.199,487.002 130.711,485.389 130.022,482.817L80.976,299.774C80.421,297.703 81.188,295.587 82.758,294.323C83.701,292.922 85.302,292 87.116,292L376.616,292L376.763,292.002C379.137,291.936 381.337,293.499 381.978,295.892L429.444,473.039C430.524,474.001 431.204,475.401 431.204,476.96L431.204,481.46C431.204,484.357 428.852,486.71 425.954,486.71L136.454,486.71C136.222,486.71 135.994,486.695 135.77,486.665ZM98.441,307L142.575,471.71L413.559,471.71L369.425,307L98.441,307Z" style="fill:rgb(37,99,235);"/>
            </g>
            <g>
                <g transform="matrix(1,0,0,1,7.334268,8.073636)">
                    <g transform="matrix(0.301465,0.174051,-0.625,1.082532,369.154072,-99.398504)">
                        <path d="M418,379.2L418,382.8C418,385.118 410.984,387 402.343,387L117.657,387C109.016,387 102,385.118 102,382.8L102,379.2C102,376.882 109.016,375 117.657,375L402.343,375C410.984,375 418,376.882 418,379.2Z" style="fill:rgb(245,245,245);"/>
                    </g>
                    <g transform="matrix(0.301465,-0.174051,0.625,1.082532,-107.095928,40.034189)">
                        <path d="M418,379.2L418,382.8C418,385.118 410.984,387 402.343,387L117.657,387C109.016,387 102,385.118 102,382.8L102,379.2C102,376.882 109.016,375 117.657,375L402.343,375C410.984,375 418,376.882 418,379.2Z" style="fill:rgb(245,245,245);"/>
                    </g>
                </g>
                <g transform="matrix(0.379747,0,0,1.25,217.265823,-36.377105)">
                    <path d="M418,379.2L418,382.8C418,385.118 411.291,387 403.026,387L116.974,387C108.709,387 102,385.118 102,382.8L102,379.2C102,376.882 108.709,375 116.974,375L403.026,375C411.291,375 418,376.882 418,379.2Z" style="fill:rgb(245,245,245);"/>
                </g>
            </g>
        </g>
    </g>
</svg>
